# xmcd CD database file
#
# Track frame offsets:
#	150
#	25592
#	41808
#	64547
#	84484
#	99968
#	118136
#	131410
#	150896
#
# Disc length: 2335 seconds
#
# Revision: 0
# Processed by: cddbd v1.5.2PL0 Copyright (c) Steve Scherf et al.
# Submitted via: CDex 1.70beta2
#
DISCID=61091d09
DTITLE=Steve Swallow/Sheila Jordan/Bob Moses/David Liebman/Lyle Mays/Steve Kuhn - Home
DYEAR=1980
DGENRE=Jazz
TTITLE0=Some Echoes
TTITLE1="She Was Young..."
TTITLE2="Nowhere One..."
TTITLE3=Colors
TTITLE4=Home
TTITLE5=In The Fall
TTITLE6="You Didn't Think..."
TTITLE7=Ice Cream
TTITLE8=Echo
EXTD=YEAR: 1980
EXTT0=
EXTT1=
EXTT2=
EXTT3=
EXTT4=
EXTT5=
EXTT6=
EXTT7=
EXTT8=
PLAYORDER=
